<?xml version="1.0" encoding="UTF-8" standalone="no"?>
<!-- Created with Inkscape (http://www.inkscape.org/) -->

<svg
   xmlns:dc="http://purl.org/dc/elements/1.1/"
   xmlns:cc="http://creativecommons.org/ns#"
   xmlns:rdf="http://www.w3.org/1999/02/22-rdf-syntax-ns#"
   xmlns:svg="http://www.w3.org/2000/svg"
   xmlns="http://www.w3.org/2000/svg"
   xmlns:sodipodi="http://sodipodi.sourceforge.net/DTD/sodipodi-0.dtd"
   xmlns:inkscape="http://www.inkscape.org/namespaces/inkscape"
   width="512"
   height="512"
   viewBox="0 0 135.46666 135.46666"
   version="1.1"
   id="svg8"
   inkscape:version="0.92.1 r15371"
   sodipodi:docname="nav.svg"
   inkscape:export-filename="C:\Users\IT College\Desktop\TopPageKaizen1\images\nav\usage.png"
   inkscape:export-xdpi="5.6250005"
   inkscape:export-ydpi="5.6250005">
  <defs
     id="defs2" />
  <sodipodi:namedview
     id="base"
     pagecolor="#ffffff"
     bordercolor="#666666"
     borderopacity="1.0"
     inkscape:pageopacity="0.0"
     inkscape:pageshadow="2"
     inkscape:zoom="0.84472656"
     inkscape:cx="467.29636"
     inkscape:cy="231.45937"
     inkscape:document-units="mm"
     inkscape:current-layer="layer1"
     showgrid="true"
     units="px"
     inkscape:window-width="1366"
     inkscape:window-height="715"
     inkscape:window-x="-8"
     inkscape:window-y="-8"
     inkscape:window-maximized="1" />
  <metadata
     id="metadata5">
    <rdf:RDF>
      <cc:Work
         rdf:about="">
        <dc:format>image/svg+xml</dc:format>
        <dc:type
           rdf:resource="http://purl.org/dc/dcmitype/StillImage" />
        <dc:title></dc:title>
      </cc:Work>
    </rdf:RDF>
  </metadata>
  <g
     inkscape:label="Layer 1"
     inkscape:groupmode="layer"
     id="layer1"
     transform="matrix(0.15338692,0,0,0.19270282,-0.36479908,78.435905)">
    <g
       id="home-icon"
       style="fill:#ffffff;stroke:#008b8b;stroke-opacity:1"
       inkscape:export-xdpi="38.02319"
       inkscape:export-ydpi="38.02319"
       transform="translate(-476.49346,-360.88839)">
      <path
         sodipodi:nodetypes="cccccccccccccccccc"
         inkscape:connector-curvature="0"
         id="path4535"
         d="m 67.374256,202.31699 56.223954,47.0226 c 0.62973,0.22475 1.00916,0.80708 2.46866,-0.15355 l 6.01218,-7.08706 c 0.7861,-1.83537 0.0197,-2.34006 -0.54068,-3.02127 L 113.79,224.30271 v -33.54232 c -0.28822,-1.24032 -1.04489,-1.81699 -2.08804,-1.98782 H 95.348403 c -1.538661,0.2468 -2.347836,1.07289 -2.372016,2.52236 v 15.63526 L 72.413338,190.0254 c -4.050608,-2.51134 -7.275407,-1.91003 -10.172949,-0.0752 L 2.7812735,239.38671 c -1.2990811,1.64987 -0.6754602,2.46379 0.033409,3.24064 L 7.748512,248.371 c 0.9251159,0.82582 1.7992322,1.73771 4.110491,0.22442 z"
         style="fill:#ffffff;stroke:#008b8b;stroke-width:0.26458332px;stroke-linecap:butt;stroke-linejoin:miter;stroke-opacity:1" />
      <path
         transform="matrix(0.26458333,0,0,0.26458333,0,161.53336)"
         inkscape:connector-curvature="0"
         id="path4537"
         d="M 253.92773,180.92773 78.601562,325.75391 v 150.00781 c 1.354681,12.55283 7.999035,17.20284 19.257813,17.55078 H 215.41406 V 376.89258 h 78.03516 v 116.73437 h 119.08789 c 9.43264,-2.18611 16.82519,-7.01717 17.50781,-20.55468 V 325.92773 Z"
         style="fill:#ffffff;stroke:#008b8b;stroke-width:0.99999994px;stroke-linecap:butt;stroke-linejoin:miter;stroke-opacity:1" />
    </g>
    <g
       id="g4584"
       transform="matrix(0.32389292,0,0,0.32389292,-578.27823,-269.74708)"
       inkscape:export-xdpi="5.5384583"
       inkscape:export-ydpi="5.5384583">
      <g
         style="fill:#ffffff"
         transform="translate(-179.04603,-39.077087)"
         id="g4571">
        <path
           style="fill:#ffffff;stroke:#008b8b;stroke-width:1.53894925px;stroke-linecap:butt;stroke-linejoin:miter;stroke-opacity:1"
           d="m 477.47503,-80.188931 c -10.4447,15.633307 8.6598,15.739742 17.2494,8.826506 l 45.5877,-37.757835 c 11.5352,-4.95316 18.8187,-3.98393 17.2494,9.31686 l -65.3013,135.339784 c -31.3473,89.012206 59.9175,67.486086 118.8977,33.83495 31.0273,-20.53333 50.478,-37.81444 53.5964,-50.507244 2.8765,-2.310621 -2.444,-13.9593731 -17.2494,-2.451802 l -39.4272,33.344576 c -10.5613,3.06433 -24.7557,12.4908 -19.7136,-11.76866 l 60.3729,-131.907258 c 11.9848,-54.752226 -22.6545,-49.554766 -51.7482,-51.487966 -41.283,4.48565 -81.5068,21.61829 -119.5138,65.218089 z"
           id="path4561"
           inkscape:connector-curvature="0"
           sodipodi:nodetypes="ccccccccccccc" />
        <ellipse
           style="opacity:1;fill:#ffffff;fill-opacity:1;fill-rule:nonzero;stroke:#008b8b;stroke-width:1.60055017;stroke-linecap:butt;stroke-linejoin:round;stroke-miterlimit:4;stroke-dasharray:none;stroke-dashoffset:0;stroke-opacity:1"
           id="path4563"
           cx="650.2619"
           cy="-206.44112"
           rx="51.355408"
           ry="40.714428" />
      </g>
      <path
         inkscape:connector-curvature="0"
         id="ellipse4577"
         d="M 408.99077,-469.66143 A 447.77852,356.27714 0 0 0 -38.786281,-113.38619 447.77852,356.27714 0 0 0 408.99077,242.89173 447.77852,356.27714 0 0 0 856.77121,-113.38619 447.77852,356.27714 0 0 0 408.99077,-469.66143 Z m 0,69.97 A 359.8381,286.30692 0 0 1 768.82956,-113.38619 359.8381,286.30692 0 0 1 408.99077,172.92174 359.8381,286.30692 0 0 1 49.152002,-113.38619 359.8381,286.30692 0 0 1 408.99077,-399.69143 Z"
         style="opacity:1;fill:#ffffff;fill-opacity:1;fill-rule:nonzero;stroke:#008b8b;stroke-width:1.41208792;stroke-linecap:butt;stroke-linejoin:round;stroke-miterlimit:4;stroke-dasharray:none;stroke-dashoffset:0;stroke-opacity:1" />
    </g>
    <ellipse
       style="opacity:1;fill:#ffffff;fill-opacity:1;fill-rule:nonzero;stroke:#008b8b;stroke-width:1.81175017;stroke-linecap:butt;stroke-linejoin:round;stroke-miterlimit:4;stroke-dasharray:none;stroke-dashoffset:0;stroke-opacity:1"
       id="path4599"
       cx="735.90387"
       cy="-537.45538"
       rx="109.33478"
       ry="86.843094" />
    <g
       id="g4666"
       transform="matrix(1.5628395,0,0,1.1649859,-430.39106,768.19899)"
       inkscape:export-xdpi="5.6250005"
       inkscape:export-ydpi="5.6250005">
      <path
         sodipodi:nodetypes="cccccccccccccc"
         inkscape:connector-curvature="0"
         id="path4601"
         d="m 1010.0358,-141.98717 c 2.3438,-2.09311 1.2675,-88.57958 1.8564,-133.97426 8.3779,-11.45217 16.0396,-14.43542 27.8462,-1.97021 10.3757,28.83914 14.6498,56.11188 15.367,81.10704 3.6098,-2.87331 31.5594,-13.70958 31.5594,-13.70958 25.1646,8.20632 34.3429,18.09442 59.5076,31.60556 9.677,2.46977 11.8418,10.63835 12.3761,16.74679 2.7206,15.23799 -3.7128,54.18077 -3.7128,54.18077 -27.1735,33.557993 -20.3685,25.107985 -26.6086,54.180758 l -125.6169,0.492558 c -24.61385,-55.686616 -49.23502,-72.655606 -63.73674,-101.958346 0.89997,-19.40382 10.24493,-21.62903 25.9897,-10.83616 6.02235,5.15432 12.15844,10.48968 19.80176,18.22444 16.09398,7.86205 20.69768,8.43799 25.37088,5.91064 z"
         style="fill:#ffffff;stroke:#008b8b;stroke-width:1.31905663px;stroke-linecap:butt;stroke-linejoin:miter;stroke-opacity:1" />
      <path
         sodipodi:nodetypes="ccccccccc"
         inkscape:connector-curvature="0"
         id="ellipse4646"
         d="m 1028.3321,-379.74086 c -60.38397,-8e-5 -109.3349,38.88089 -109.33495,86.84304 0.0638,39.59003 33.83029,74.13457 82.10315,83.9951 0,0 -0.2547,-68.59483 1.1892,-75.49079 7.9516,-10.86954 16.2413,-15.49343 24.8881,-15.22413 6.7251,0.20946 14.1027,1.55031 22.8184,10.75222 11.0992,30.84991 14.8839,49.87932 17.0091,77.15768 42.5092,-12.76823 70.6415,-45.09212 70.662,-81.19008 -10e-5,-47.96215 -48.951,-86.8431 -109.335,-86.84304 z"
         clip-path="none"
         style="opacity:1;fill:#ffffff;fill-opacity:1;fill-rule:nonzero;stroke:#008b8b;stroke-width:1.81175017;stroke-linecap:butt;stroke-linejoin:round;stroke-miterlimit:4;stroke-dasharray:none;stroke-dashoffset:0;stroke-opacity:1" />
    </g>
    <g
       id="g4674"
       transform="matrix(2.1071587,0,0,1.9983184,-275.82578,110.19866)"
       inkscape:export-xdpi="7.2022209"
       inkscape:export-ydpi="7.2022209">
      <ellipse
         ry="68.650612"
         rx="86.247032"
         cy="-153.04057"
         cx="340.81363"
         id="path4668"
         style="opacity:1;fill:#ffffff;fill-opacity:1;fill-rule:nonzero;stroke:#008b8b;stroke-width:1.54936635;stroke-linecap:butt;stroke-linejoin:round;stroke-miterlimit:4;stroke-dasharray:none;stroke-dashoffset:0;stroke-opacity:1" />
      <ellipse
         style="opacity:1;fill:#ffffff;fill-opacity:1;fill-rule:nonzero;stroke:#008b8b;stroke-width:1.98525178;stroke-linecap:butt;stroke-linejoin:round;stroke-miterlimit:4;stroke-dasharray:none;stroke-dashoffset:0;stroke-opacity:1"
         id="ellipse4670"
         cx="340.81363"
         cy="-8.3806391"
         rx="162.67883"
         ry="59.755852" />
    </g>
  </g>
</svg>
